<?xml version="1.0" encoding="iso-8859-1"?>
<!-- Generator: Adobe Illustrator 16.0.0, SVG Export Plug-In . SVG Version: 6.00 Build 0)  -->
<!DOCTYPE svg PUBLIC "-//W3C//DTD SVG 1.1//EN" "http://www.w3.org/Graphics/SVG/1.1/DTD/svg11.dtd">
<svg version="1.1" id="Capa_1" xmlns="http://www.w3.org/2000/svg" xmlns:xlink="http://www.w3.org/1999/xlink" x="0px" y="0px"
	 width="579.712px" height="579.712px" viewBox="0 0 579.712 579.712" style="enable-background:new 0 0 579.712 579.712;"
	 xml:space="preserve">
<g>
	<path d="M445.071,356.156c-0.919,0-1.53,0.306-2.448,0.306c-6.732-31.518-15.3-62.424-23.868-93.33
		c-24.48-89.964-59.976-189.72-129.131-255.204c0.612-4.896-4.284-10.403-10.098-6.731
		c-53.856,33.659-109.242,58.445-171.054,72.828c-7.344,1.836-4.284,11.934,2.448,11.321c28.458,21.42,78.03,35.496,112.914,20.196
		c-17.442,57.834-39.78,114.444-60.282,171.054c-8.262,22.95-19.278,46.818-28.764,71.299c-53.244,0-148.104,10.098-123.318,81.09
		c24.48,70.686,126.99,111.689,191.556,130.355c98.531,28.152,253.062,36.721,333.846-38.25
		C622.245,441.835,538.094,360.133,445.071,356.156z M178.851,280.879c21.114-58.752,46.512-119.952,56.916-181.764
		c2.142-1.53,4.284-3.061,6.12-4.896c3.672-3.366-0.306-8.567-4.59-7.649c-0.918,0.306-2.142,0.611-3.06,0.611
		c-1.53-0.611-3.366-0.306-4.284,0.918c-18.054,4.284-33.966,10.404-53.856,10.099c-18.666-0.307-36.72-6.12-52.938-15.3
		c57.528-11.629,112.914-36.108,161.568-68.851c29.375,31.519,51.102,68.851,68.85,108.324c-13.464,0.918-27.847,2.754-41.311,6.731
		c-4.59-7.955-9.485-16.218-14.994-23.867c-2.447-3.672-8.261-0.307-5.813,3.365c4.59,7.345,8.568,14.994,12.852,22.95
		c-5.813,2.143-11.628,4.59-16.829,7.956c-2.448-5.508-4.59-11.016-6.732-16.523c-1.53-3.673-7.344-2.448-6.12,1.836
		c1.836,6.426,4.284,12.852,6.732,19.277c-9.486,7.345-16.83,17.442-20.502,30.601c-3.672,13.464-2.754,28.458,0.918,43.452
		c-0.918,0.306-1.836,0.611-3.06,0.918c-5.202,1.224-10.098,2.142-15.3,2.754c-1.836,0.306-3.672,0.306-5.202,0.306
		c-3.366,0-2.754-0.612-2.142,1.53c-1.224-3.366-6.12-2.143-5.508,1.529c1.224,7.65,14.382,6.12,19.278,5.509
		c4.284-0.307,9.486-0.918,14.688-2.143c2.142,7.038,4.896,14.076,7.65,20.809c-5.202,2.142-10.404,3.978-16.83,4.283
		c-4.896,0.307-5.202,7.956,0,7.956c6.732,0,13.77-1.529,20.502-3.978c8.262,17.442,17.748,33.966,25.703,47.124
		c2.754,4.59,11.017,1.53,8.874-3.672c0-0.306-0.306-0.612-0.306-0.612c7.649-3.978,15.605-7.649,23.562-11.016
		c3.672,7.956,7.65,15.912,13.771,21.726c2.754,2.755,8.567,0,7.038-3.978c-2.754-7.65-7.65-14.382-11.935-21.114
		c6.427-2.448,12.853-5.202,19.278-7.344c3.366,9.18,7.038,18.666,12.24,26.315c3.06,4.284,10.403,1.837,8.874-3.672
		c-2.754-8.567-7.038-16.83-11.322-25.092c9.792-1.836,21.726-3.06,27.234-8.874c1.836-2.142,2.142-5.508,0-7.65
		c-7.956-7.038-22.645-1.529-33.049,2.754c-4.59-11.016-8.567-22.031-11.934-33.354c-1.224-4.284-7.65-2.448-6.732,1.836
		c2.448,11.934,6.427,23.256,10.404,34.884c-7.344,2.754-14.382,5.814-21.42,8.874c-5.508-9.792-10.71-19.89-15.912-29.682
		c-2.142-3.979-7.956-0.612-6.12,3.672c4.591,10.098,9.486,19.89,14.383,29.988c-7.65,3.672-15.301,7.956-22.339,12.546
		c-5.508-12.853-11.627-25.704-16.829-38.557c7.344-3.978,14.075-8.567,19.89-13.464c4.284-3.672-1.225-9.485-5.508-7.344
		c-6.427,3.061-12.24,7.038-18.054,10.71c-2.142-5.813-4.284-11.934-5.814-18.054c4.896-2.143,9.486-4.59,12.545-8.262
		c2.754-3.061,0-8.263-3.978-7.038c-3.978,1.224-7.65,2.447-11.322,3.978c-0.918-4.896-1.836-9.486-2.448-14.382
		c-2.142-18.054,3.672-30.6,13.464-39.78c3.671,8.263,8.261,20.502,16.217,24.48c2.754,1.529,7.65-0.918,6.12-4.59
		c-3.366-7.956-10.098-14.688-14.076-22.339c-0.611-0.918-0.917-1.836-1.224-2.754c4.896-3.365,10.71-5.813,16.83-7.956
		c3.978,8.874,7.956,18.055,14.076,25.704c2.447,3.366,7.649-0.306,6.731-3.978c-2.447-8.874-7.038-16.83-11.628-24.786
		c13.158-3.366,27.234-4.896,39.78-5.814c15.3,36.721,27.54,75.276,39.474,112.303c11.628,36.414,20.196,74.052,28.765,111.384
		c2.447,10.099,4.283,20.196,5.813,30.294c-70.992,29.988-148.715,16.218-221.237-0.918c-12.546-3.06-24.48-7.649-36.72-11.934
		c-7.344-2.448-14.382-5.202-21.726-7.956c-2.142-0.918-3.366-1.225-4.59-1.225C160.797,339.631,169.059,308.114,178.851,280.879z
		 M145.191,380.942c15.3,15.605,60.282,22.95,77.418,27.233c69.768,17.442,145.962,26.622,213.894-0.918
		c0.918,6.12,1.836,12.24,2.448,18.36c-2.448,0.306-4.896,2.448-5.202,4.896c-0.306-3.366-3.366-6.427-7.038-4.896
		c-97.308,37.638-201.348,26.316-297.125-14.076C135.399,402.055,140.601,391.652,145.191,380.942z M434.361,553.219
		c-73.746,17.748-166.464,8.874-238.986-11.934c-55.386-15.605-111.384-45.9-151.164-88.434
		c-63.648-67.626,28.458-87.822,86.292-93.942c-6.426,17.748-11.628,35.496-14.076,52.938c-1.224,2.447-1.224,5.508,2.142,7.037
		c49.878,25.704,104.958,38.557,160.344,44.982c45.899,5.202,118.116,7.344,153.305-29.07c0.918-0.918,1.53-2.142,1.53-3.365
		c0,0.611,0,1.529,0.612,2.142c2.447,4.896,2.447,5.813,5.813,9.18c2.754,2.754,6.732,2.448,9.486,0
		c11.016-9.792,2.142-35.189,0.306-47.43c-1.224-7.956-2.754-15.912-4.284-23.868c48.654,2.448,108.019,21.727,113.526,78.643
		C565.022,508.85,478.119,542.816,434.361,553.219z"/>
</g>
<g>
</g>
<g>
</g>
<g>
</g>
<g>
</g>
<g>
</g>
<g>
</g>
<g>
</g>
<g>
</g>
<g>
</g>
<g>
</g>
<g>
</g>
<g>
</g>
<g>
</g>
<g>
</g>
<g>
</g>
</svg>
