<?xml version="1.0" encoding="iso-8859-1"?>
<!-- Generator: Adobe Illustrator 16.0.0, SVG Export Plug-In . SVG Version: 6.00 Build 0)  -->
<!DOCTYPE svg PUBLIC "-//W3C//DTD SVG 1.1//EN" "http://www.w3.org/Graphics/SVG/1.1/DTD/svg11.dtd">
<svg version="1.1" id="Capa_1" xmlns="http://www.w3.org/2000/svg" xmlns:xlink="http://www.w3.org/1999/xlink" x="0px" y="0px"
	 width="570.432px" height="570.432px" viewBox="0 0 570.432 570.432" style="enable-background:new 0 0 570.432 570.432;"
	 xml:space="preserve">
<g>
	<g>
		<path d="M559.87,169.313c-4.284-8.262-12.853-12.239-21.421-14.075c0.307-2.143,0.612-3.979,0.919-6.12
			c0.918-6.12,0.611-11.935-0.612-17.748c-2.143-8.568-8.262-15.912-17.136-18.054c-7.956-1.837-15.912,1.836-21.114,7.955
			c-6.426,7.345-8.262,16.83-8.262,26.316c-5.202-4.284-11.629-7.344-17.748-7.65c-13.158-0.611-22.032,8.263-28.765,18.36
			c-3.672,5.508-5.202,7.956-2.142,13.464c2.448,4.59,6.426,8.874,11.016,11.322c6.427,3.366,14.076,1.836,21.42-0.306
			c1.225,21.42-2.142,42.533-17.136,59.058c-13.77,15.606-35.189,19.278-55.08,18.054c11.322-43.758,24.48-86.903,28.152-126.071
			C444.507,8.358,307.113-12.756,209.805,5.91c-129.132,24.786-94.86,139.536-61.812,253.674
			c-46.206,4.59-65.484-43.758-68.85-84.15c5.814,0.307,12.24-2.447,17.136-4.283c4.896-2.143,9.486-5.814,11.934-10.404
			c4.284-7.956,1.53-17.442-4.284-23.868s-15.606-9.18-23.562-5.508c-11.934,5.508-15.606,20.196-17.136,32.436
			c-6.12-14.994-26.01-46.206-44.676-29.987c-16.524,14.382,0.918,35.189,14.382,46.206c-13.158,4.59-30.6,13.77-24.174,29.069
			c7.038,16.524,29.682,12.853,43.758,6.732c3.06,52.938,50.184,95.472,102.51,68.85c24.174,85.986,41.004,167.994-20.196,207.162
			c0.612-3.672-4.59-7.038-7.344-3.672c-11.322,14.076-20.808,37.025-3.06,50.489c15.912,12.24,42.228,5.202,53.856-9.485
			c3.06-3.672-0.612-9.181-5.202-6.732c-12.546,6.426-26.01,16.524-40.392,8.568c-10.098-5.508-8.262-17.442-4.284-27.234
			c78.03-30.906,57.528-127.602,41.922-192.168c-3.366-14.076-8.262-30.294-13.77-48.042c1.836-1.224,1.224-4.283-1.53-4.59
			c-23.562-80.784-53.244-188.189,24.48-230.724c56.304-30.6,154.53-22.645,206.856,11.322
			c53.243,34.578,32.741,113.22,20.502,163.098c-5.814,24.174-13.465,50.184-19.584,77.112c-0.307-0.307-0.918-0.307-1.225-0.307
			c-2.448-0.918-4.284,3.366-1.836,4.284c0.612,0.307,1.224,0.612,2.143,0.918c-17.137,74.052-24.48,152.694,35.189,206.55
			c0,0.612-0.306,0.918,0,1.53c2.448,8.568,20.502,25.092,6.12,32.436c-12.24,6.427-28.458-4.896-37.638-13.464
			c0-0.306-0.307-0.918-0.307-1.224c-1.836-5.814-9.792-3.366-8.874,2.448c2.754,15.605,4.284,37.638-16.83,39.474
			c-15.911,1.53-27.846-16.523-34.271-28.152c-2.754-4.59-9.486-2.447-9.486,2.754c-2.142,44.982-48.96,42.229-61.2,3.979
			c-0.918-3.061-4.284-3.366-6.12-1.836c-1.836-1.53-4.896-1.53-5.814,0.918c-6.732,15.3-16.524,27.846-34.272,29.682
			c-19.89,2.143-27.234-14.688-23.868-31.824c0.918-4.283-4.896-5.813-6.426-1.836c-7.65,21.42,0.612,41.004,24.174,44.064
			c20.502,2.448,41.922-12.852,46.512-32.742c13.464,42.534,63.342,43.146,74.97,3.366c10.71,14.688,26.01,25.704,45.594,20.502
			c16.524-4.59,20.196-22.032,18.666-37.638c11.628,9.792,27.234,16.83,41.616,9.792c14.076-6.732,10.099-27.54,0.918-38.862
			c1.53-1.836,1.836-4.59-0.611-6.732c-58.752-54.161-54.162-126.378-37.332-199.512c55.691,14.994,120.87-26.315,123.624-84.456
			c5.201,5.509,13.464,7.956,21.113,7.038c8.568-1.224,15.301-8.567,18.666-15.912C563.847,186.756,564.153,177.576,559.87,169.313z
			 M153.807,279.78c-53.856,24.785-90.27-22.95-94.554-72.828c-0.306-4.284-6.426-4.284-6.732,0c0,1.224,0,2.448,0,3.366
			c-11.016,3.365-28.458,7.344-35.802-3.366c-8.568-12.24,18.36-20.502,25.092-22.032c3.06-0.612,3.06-4.59,0.918-6.12
			c-9.486-6.426-32.742-26.01-19.584-39.168c4.284-4.284,11.322-1.836,15.606,0.918c9.792,6.12,14.688,18.054,19.278,28.152
			c1.224,2.448,4.59,1.836,5.814,0c1.224,1.224,4.284,1.224,4.896-1.225c1.836-9.792,4.59-23.256,14.076-28.764
			c5.202-3.06,11.628-0.612,15.606,3.366c3.978,3.978,5.508,9.792,3.06,14.688c-1.836,3.366-5.202,5.509-8.262,7.038
			c-2.448,1.225-5.202,1.836-7.956,2.448c-3.978,0.918-7.956,0.612-11.016,3.06l-0.306,0.307c-0.612,0.612-1.224,1.224-1.224,2.448
			c-1.224,45.899,25.092,102.815,77.112,93.941C151.053,270.6,152.277,275.19,153.807,279.78z M553.443,189.816
			c-2.142,5.508-6.731,10.403-12.546,11.934c-7.649,1.836-12.852-4.896-18.972-7.956c-0.612-0.306-0.918-0.306-1.53-0.306
			c-0.306-3.979-0.918-8.263-1.836-12.546c-0.918-3.979-6.731-2.755-6.731,0.918c-0.612,31.823-7.65,57.527-31.213,80.478
			c-22.338,21.42-53.55,28.152-82.619,20.809c1.529-6.12,2.754-11.935,4.283-18.055c51.103,6.12,87.21-30.294,82.62-83.538
			c0-0.611-0.306-1.224-0.611-1.836c0.611-0.306,1.224-0.306,1.529-0.611c3.366-0.918,2.143-6.12-1.529-5.202
			c-7.038,1.529-14.076,3.672-21.114,3.672c-8.262,0-14.994-8.568-11.017-15.606c4.896-8.262,12.853-15.912,22.95-14.076
			c9.792,1.53,15.912,10.711,23.562,15.912c2.448,1.53,4.59-1.529,3.672-3.672c-1.224-2.448-2.754-4.59-4.59-7.038
			c0.306-13.157,4.59-36.414,21.42-32.741c6.731,1.529,10.098,7.955,11.628,13.77c1.224,4.59,0.918,9.486,0.306,14.076
			c-0.306,1.836-0.918,3.672-1.224,5.508c-2.448,0-3.366,3.672-1.53,4.896c-0.918,2.754-1.53,5.201-1.53,7.955
			c0,2.755,3.673,4.284,5.509,2.143c1.836-2.143,3.365-4.896,4.283-7.65C549.465,165.642,558.645,175.128,553.443,189.816z"/>
		<path d="M224.187,48.444c-3.672-3.061-8.262-0.612-8.874,3.06c-29.988,10.404-68.85,73.746-28.152,88.434
			C245.913,161.052,261.519,80.268,224.187,48.444z M192.975,129.534c-33.048-8.568,7.956-57.834,24.786-72.522
			C243.465,81.492,239.181,141.774,192.975,129.534z"/>
		<path d="M343.833,63.744c-4.284-3.979-10.71,1.53-7.956,5.813c-0.612,0-1.225,0-1.836,0.307
			c-18.666,10.403-31.519,32.742-28.765,54.162c1.836,13.464,17.442,36.107,33.967,31.823c14.688-3.978,20.808-21.42,22.644-34.884
			C364.641,99.852,359.746,78.126,343.833,63.744z M341.998,142.08c-12.853,14.076-26.622-16.524-26.929-25.704
			c-0.611-15.606,11.322-32.13,22.338-42.228c0.612-0.612,0.918-1.225,0.918-1.837C354.849,89.448,358.828,123.72,341.998,142.08z"
			/>
		<path d="M343.833,230.82c-17.442-39.168-60.282-49.267-99.145-41.311c-16.83,3.366-42.534,16.218-46.206,33.66
			c-1.836,0.918-3.06,2.754-2.142,5.202c1.224,3.366,2.754,6.426,4.284,9.18c0.306,0.307,0.306,0.612,0.612,1.225
			c0.306,0.611,0.918,1.224,1.224,1.836c0.612,0.918,1.224,2.142,2.142,3.06c0,0,0.306,0,0.306,0.306
			c14.688,19.584,40.392,28.765,62.118,39.78s32.742,35.496,53.55,47.736C356.991,352.302,351.177,246.732,343.833,230.82z
			 M336.795,304.565c-4.896,29.376-22.338,8.263-33.354-3.672c-9.485-10.403-18.972-20.195-31.212-27.233
			c-25.092-14.076-52.02-21.114-66.708-47.736c3.978-16.523,29.988-25.397,45.594-28.458c31.824-6.426,66.708,3.979,82.314,33.966
			C344.751,252.852,340.773,281.922,336.795,304.565z"/>
	</g>
</g>
<g>
</g>
<g>
</g>
<g>
</g>
<g>
</g>
<g>
</g>
<g>
</g>
<g>
</g>
<g>
</g>
<g>
</g>
<g>
</g>
<g>
</g>
<g>
</g>
<g>
</g>
<g>
</g>
<g>
</g>
</svg>
