<?xml version="1.0" encoding="iso-8859-1"?>
<!-- Generator: Adobe Illustrator 16.0.0, SVG Export Plug-In . SVG Version: 6.00 Build 0)  -->
<!DOCTYPE svg PUBLIC "-//W3C//DTD SVG 1.1//EN" "http://www.w3.org/Graphics/SVG/1.1/DTD/svg11.dtd">
<svg version="1.1" id="Capa_1" xmlns="http://www.w3.org/2000/svg" xmlns:xlink="http://www.w3.org/1999/xlink" x="0px" y="0px"
	 width="577.417px" height="577.417px" viewBox="0 0 577.417 577.417" style="enable-background:new 0 0 577.417 577.417;"
	 xml:space="preserve">
<g>
	<g>
		<path d="M568.064,249.4c-24.48-98.532-158.508-203.796-249.084-124.236c-11.628-28.152-26.622-69.156,14.076-80.478
			c3.978-1.224,5.508-5.508,3.672-8.874c-4.59-9.18-10.404-17.442-17.136-25.092c-1.225-1.224-3.366-1.836-5.202-1.224
			c-51.102,17.442-89.352,70.074-80.478,124.542C124.671,65.8,26.445,166.78,4.107,277.858
			C-17.313,384.04,45.111,591.814,190.155,544.69c58.752,34.578,155.753,31.823,203.49-14.076
			c56.304,14.076,108.936-25.092,140.454-70.38C578.469,396.585,586.73,324.37,568.064,249.4z M260.535,64.576
			c7.956-13.464,19.89-24.48,32.742-33.66c13.158-9.486,23.256-8.568,29.682,3.672c-38.555,12.546-38.555,72.522-13.157,99.756
			c-0.307,0.918-0.612,1.53-0.612,2.448c-20.196-4.896-43.758-1.836-64.872,3.978c-0.306-0.306-0.612-0.306-0.918-0.612
			C240.645,113.23,246.459,88.138,260.535,64.576z M399.458,524.494c2.755-3.366,5.509-6.732,7.956-10.71
			c3.672-5.508-3.978-10.404-8.567-6.731c-49.878,43.146-138.006,62.117-200.43,30.905c0.306-3.366-2.448-6.426-6.732-5.508
			c-0.918,0.306-1.53,0.306-2.448,0.612c-9.792-6.12-18.972-13.464-26.928-22.338c-2.754-3.061-7.956,0.918-5.508,4.283
			c5.508,7.65,12.24,14.383,19.89,20.502c-235.314,36.108-214.2-515.916,55.998-391.067c-7.65,2.754-14.994,5.814-21.726,8.874
			c-3.978,1.836-1.224,8.568,3.06,7.344c42.534-14.076,77.417-19.584,118.727,0.612c5.202,2.448,10.71-3.979,6.427-8.262
			c-5.509-5.508-11.628-9.486-18.666-12.546c88.128-85.986,207.162,24.48,234.702,111.996
			C588.261,356.806,526.143,527.248,399.458,524.494z"/>
		<path d="M248.601,268.984c-0.306-2.754-3.672-4.896-6.12-4.896c-29.682,1.53-63.342-33.354-18.666-41.616
			c6.426-1.224,4.284-10.098-1.224-10.71c0.306-0.306,0.612-0.918,0.612-1.53c-0.306-37.026-36.72-28.764-57.834-12.546
			c-34.578,26.622-34.272,85.068-31.824,123.93c0.306,3.978,2.754,6.12,6.426,6.426c34.578,4.284,69.768,2.143,104.04-2.448
			c2.142-0.306,3.978-2.447,4.59-4.59C252.579,303.868,251.049,286.732,248.601,268.984z M206.373,317.026
			c-20.196,1.53-40.392,1.224-60.282-0.918c-1.53-29.682,0.306-60.588,11.934-88.128c8.262-19.584,51.102-52.938,59.364-16.524
			c0,0.612,0.612,0.918,0.918,1.224c-18.36,3.672-33.966,14.994-28.458,35.802c5.202,19.89,28.152,28.152,46.818,28.764
			c1.224,9.486,1.836,18.972,1.53,28.764C237.891,317.944,213.411,316.414,206.373,317.026z"/>
		<path d="M430.364,197.074c-22.032-20.502-56.304-18.666-70.686,7.65c-5.814,0.918-7.65,10.404-0.918,11.934
			c44.37,9.486,20.502,54.468-16.83,45.9c-3.979-0.918-7.956,1.836-7.956,6.12c0,17.136,0,34.272,2.142,51.102
			c0.612,4.284,3.672,6.731,7.956,6.12c28.152-4.284,58.752-2.448,85.68,6.426c2.755,0.918,7.038-0.918,7.65-4.284
			C444.44,284.59,468.309,232.875,430.364,197.074z M426.998,318.556c-25.397-7.345-52.632-9.181-78.642-6.12
			c-1.224-12.24-1.53-24.48-1.53-37.026c19.278,1.836,40.086-4.896,47.431-24.48c8.262-22.338-5.814-38.25-25.704-44.676
			c19.89-20.808,50.184-11.016,64.565,13.77C449.643,248.176,433.425,287.956,426.998,318.556z"/>
		<path d="M488.811,339.364c-0.918-5.814-10.098-8.262-11.628-1.224v0.306c-59.364,55.998-153.307,69.462-230.724,50.796
			c-3.06-0.918-7.65,0.918-8.262,4.59c-6.12,41.922-46.818,14.688-52.02-16.218c0.918,0.306,1.836,0.306,2.754,0.612
			c3.366,0.306,3.366-4.284,0.612-5.202c-24.786-9.792-50.184-17.442-74.97-27.847c-2.754-1.224-7.038,1.225-7.344,4.284
			c-15.912,105.265,97.614,153,186.353,150.246c3.366,0,6.12-2.754,6.12-6.12c0-2.142-2.448-32.436,0.918-32.742
			c13.464-1.529,35.496-7.344,35.496,19.278c0,5.508,5.508,7.038,9.181,5.202c22.338,24.174,68.237-18.666,82.313-33.66
			c25.704-27.54,52.632-67.014,59.976-105.264C489.729,343.954,489.729,341.505,488.811,339.364z M426.998,432.082
			c-11.321,13.771-24.174,26.622-38.861,36.72c-13.464,9.181-25.092,7.65-39.168,10.099c0-36.108-27.234-33.048-57.528-29.683
			c-3.059,0.307-6.732,2.448-6.12,6.12c4.59,36.414-5.508,33.967-39.474,28.765c-27.234-3.979-53.244-14.383-76.806-28.152
			c-24.48-14.382-42.228-37.026-49.878-64.566c-11.628-41.004,32.13-22.949,59.67-15.911c-0.306,0.611-0.306,0.918-0.306,1.836
			c1.53,13.464,1.53,26.621,0.306,40.086c0,2.447,1.836,5.201,4.284,5.813c20.502,3.979,38.556,5.814,59.67,5.202
			c3.672,0,6.426-2.754,6.426-6.426c0.612-26.622,30.294-13.158,48.041-11.628c25.704,1.836,51.103-1.225,76.5-5.509
			c34.272-5.813,68.851-18.972,95.778-41.004C459.129,388.936,443.522,411.885,426.998,432.082z"/>
	</g>
</g>
<g>
</g>
<g>
</g>
<g>
</g>
<g>
</g>
<g>
</g>
<g>
</g>
<g>
</g>
<g>
</g>
<g>
</g>
<g>
</g>
<g>
</g>
<g>
</g>
<g>
</g>
<g>
</g>
<g>
</g>
</svg>
